#define pattern3_width 8
#define pattern3_height 8
static unsigned char pattern3_bits[] = {
   0x7e, 0x81, 0xa5, 0x81, 0xa5, 0x99, 0x81, 0x7e };
