#define pattern1_width 8
#define pattern1_height 8
static unsigned char pattern1_bits[] = {
   0x18, 0x3c, 0x7e, 0x42, 0x52, 0x42, 0x4a, 0x4a };
